:SAMPLES-PER-SECOND 24
:FULLY-SPECIFIED
:DEGREES
520
root  -1.36733 41.1954 28.3127 -177.31 -56.5983 171.515
RightUpLeg  -5.12719 -11.2145 -19.4167
RightLeg  20.3328 5.07907 1.8875
RightFoot  11.2918 -1.99214 10.3079
RightToes  -1.74623e-010 0 -2.59999e-017
Spine  1.60705 -2.61479 -7.68199
Spine1  16.3512 -4.3217 3.85774
HEad  -12.9426 -30.1254 11.6972
LeftShoulder1  1.63868 -2.69894 -19.951
LeftArm  22.9204 14.9661 -47.0029
LeftForeArm  139.866 -76.1249 -135.282
LeftHand  0.0214747 6.48683 5.28624
RightShoulder  2.9786 5.06372 28.8377
RightArm  -20.2442 -22.9452 34.3742
RightForeArm  28.9425 73.1111 37.8086
RightHand  -0.388792 -7.59126 17.2189
LeftUpLeg  5.42268 8.7989 7.68688
LeftLeg  17.236 -3.0126 -1.0179
LeftFoot  4.25908 1.9146 -14.1188
LeftToes  -6.27559e-011 -2.10356e-011 8.24929e-012
521
root  -1.25567 40.5608 28.449 -177.831 -56.4159 171.37
RightUpLeg  -5.67824 -9.45841 -19.3262
RightLeg  24.7502 5.82595 2.71219
RightFoot  6.70284 -2.10568 13.4967
RightToes  -1.74623e-010 0 -2.59999e-017
Spine  3.35935 -2.05639 -7.93868
Spine1  15.5882 -3.87443 3.50506
HEad  -14.2938 -30.4461 12.5529
LeftShoulder1  1.60052 -2.83574 -18.6954
LeftArm  23.1747 11.1928 -46.0766
LeftForeArm  135.26 -77.0593 -130.783
LeftHand  0.0192098 6.41986 5.36212
RightShoulder  2.87746 4.96348 28.0317
RightArm  -19.2371 -22.1627 34.1714
RightForeArm  25.5747 71.8892 34.7712
RightHand  -0.164288 -6.31954 14.1649
LeftUpLeg  4.47857 7.68373 7.74805
LeftLeg  20.3345 -6.60363 -2.38085
LeftFoot  2.33822 1.80231 -15.0731
LeftToes  -6.27559e-011 -2.10356e-011 8.24929e-012
522
root  -1.16489 39.3754 28.5639 -178.885 -56.9558 171.995
RightUpLeg  -6.09085 -10.6545 -19.0943
RightLeg  28.9188 4.21677 2.29127
RightFoot  -1.89219 -1.12958 13.2303
RightToes  -1.74623e-010 0 -2.59999e-017
Spine  4.63725 -1.88278 -8.09528
Spine1  15.1258 -3.94691 3.80808
HEad  -15.3476 -30.4857 12.778
LeftShoulder1  1.63573 -3.01679 -18.5224
LeftArm  22.3452 6.2548 -43.8483
LeftForeArm  125.441 -78.1451 -123.086
LeftHand  0.0096845 6.4686 4.31946
RightShoulder  2.82679 4.95036 27.4672
RightArm  -18.6472 -19.6283 32.8736
RightForeArm  21.7033 69.5389 29.936
RightHand  -0.0313749 -5.31798 8.6208
LeftUpLeg  3.07536 6.91653 8.87209
LeftLeg  25.7427 -9.13952 -4.437
LeftFoot  -5.00972 0.826428 -14.2977
LeftToes  -6.27559e-011 -2.10356e-011 8.24929e-012
523
root  -1.07315 37.9669 28.7422 -179.056 -57.1351 172.445
RightUpLeg  -8.57218 -13.1275 -19.2274
RightLeg  34.3803 4.12817 2.8083
RightFoot  -11.0645 -0.104656 10.0813
RightToes  -1.74623e-010 0 -2.59999e-017
Spine  4.65013 -1.87577 -8.29026
Spine1  15.8004 -4.01837 3.66184
HEad  -17.6791 -30.3487 13.5383
LeftShoulder1  1.67247 -2.82798 -19.9589
LeftArm  21.1997 -1.06646 -40.5363
LeftForeArm  108.952 -79.3305 -108.965
LeftHand  0.0846694 8.38765 4.67991
RightShoulder  3.03262 5.20673 28.8777
RightArm  -17.3475 -13.1294 28.8642
RightForeArm  21.805 65.1959 23.0425
RightHand  -0.0608453 -6.67697 2.49271
LeftUpLeg  0.775847 7.41077 9.39605
LeftLeg  31.9461 -9.55011 -5.99206
LeftFoot  -16.478 -0.534364 -13.9392
LeftToes  -6.27559e-011 -2.10356e-011 8.24929e-012
524
root  -1.02022 37.0782 28.9216 -179.346 -56.122 173.069
RightUpLeg  -11.568 -14.5361 -19.3521
RightLeg  39.2849 5.52419 4.57824
RightFoot  -15.0134 0.175257 8.55872
RightToes  -1.74623e-010 0 -2.59999e-017
Spine  4.27106 -1.56453 -8.2524
Spine1  17.2408 -3.69826 2.93028
HEad  -20.8718 -30.1217 14.8927
LeftShoulder1  1.77082 -2.7605 -21.9258
LeftArm  19.0134 -5.9102 -39.3074
LeftForeArm  98.8355 -80.0904 -94.3009
LeftHand  0.255232 10.602 6.6155
RightShoulder  3.28567 5.47729 30.6899
RightArm  -17.3767 -6.78951 26.5359
RightForeArm  33.2699 62.1624 18.2759
RightHand  -0.0121308 -10.1465 -0.953477
LeftUpLeg  -0.459823 8.12724 9.20532
LeftLeg  34.9791 -7.15285 -4.96469
LeftFoot  -22.9724 -1.24864 -13.5687
LeftToes  -6.27559e-011 -2.10356e-011 8.24929e-012
525
root  -1.13923 37.3831 28.8912 179.496 -54.3168 174.492
RightUpLeg  -12.1274 -15.1401 -18.7873
RightLeg  39.1922 7.28583 6.07173
RightFoot  -12.2757 -0.0127773 8.65749
RightToes  -1.74623e-010 0 -2.59999e-017
Spine  3.65414 -1.26864 -7.95344
Spine1  18.1286 -3.42358 2.79041
HEad  -21.6037 -29.6271 15.4378
LeftShoulder1  1.85843 -2.89727 -22.7395
LeftArm  16.1723 -2.57413 -41.6226
LeftForeArm  108.39 -80.1717 -99.7484
LeftHand  0.455475 11.1046 10.0157
RightShoulder  3.28253 5.47914 30.6476
RightArm  -18.9106 -6.97009 29.8138
RightForeArm  43.2128 64.5339 19.3745
RightHand  0.151308 -12.1903 -3.58056
LeftUpLeg  1.24221 8.79253 9.61723
LeftLeg  32.3437 -5.97187 -3.69108
LeftFoot  -21.3728 -1.06571 -13.5457
LeftToes  -6.27559e-011 -2.10356e-011 8.24929e-012
526
root  -1.38969 38.6403 28.6358 178.959 -51.7399 176.041
RightUpLeg  -11.698 -16.3728 -17.6319
RightLeg  35.071 11.1285 8.04033
RightFoot  -3.55901 -0.672437 9.39855
RightToes  -1.74623e-010 0 -2.59999e-017
Spine  2.46063 -1.29231 -7.25161
Spine1  16.9964 -3.09918 2.61624
HEad  -18.1839 -29.1154 14.5026
LeftShoulder1  1.83121 -2.7932 -22.7888
LeftArm  15.043 6.22799 -44.2576
LeftForeArm  122.387 -78.5642 -119.712
LeftHand  0.529113 10.2127 13.3635
RightShoulder  3.24428 5.44351 30.3613
RightArm  -18.3327 -12.7986 34.4606
RightForeArm  46.4869 70.8538 28.0908
RightHand  0.157285 -10.8192 -4.34182
LeftUpLeg  3.84794 10.1552 10.455
LeftLeg  26.473 -5.92369 -2.85971
LeftFoot  -13.5789 -0.215184 -15.488
LeftToes  -6.27559e-011 -2.10356e-011 8.24929e-012
527
root  -1.60279 39.9504 28.3146 179.289 -48.228 177.21
RightUpLeg  -12.5154 -19.2892 -16.0866
RightLeg  30.9882 15.3065 9.511
RightFoot  6.51069 -1.78506 11.5465
RightToes  -1.74623e-010 0 -2.59999e-017
Spine  1.41905 -1.24184 -6.14171
Spine1  14.3491 -2.43525 1.81827
HEad  -13.35 -28.4312 12.6257
LeftShoulder1  1.80714 -2.72692 -22.7044
LeftArm  15.6592 14.7326 -45.2181
LeftForeArm  128.14 -76.2596 -132.206
LeftHand  0.436301 9.20889 13.9557
RightShoulder  3.24695 5.41762 30.5021
RightArm  -14.5534 -19.0238 36.2064
RightForeArm  55.4698 76.6319 45.7983
RightHand  -0.108662 -8.84204 1.91792
LeftUpLeg  5.02982 10.7026 10.4597
LeftLeg  21.7557 -1.45312 -0.384407
LeftFoot  -2.98167 1.12131 -15.3371
LeftToes  -6.27559e-011 -2.10356e-011 8.24929e-012
528
root  -1.75068 40.7342 28.0839 179.18 -43.9465 178.29
RightUpLeg  -14.1368 -23.0771 -14.1944
RightLeg  27.8118 14.8427 8.13969
RightFoot  10.2518 -2.4429 13.1511
RightToes  -1.74623e-010 0 -2.59999e-017
Spine  0.675443 -0.77743 -4.56961
Spine1  13.3048 -1.56163 1.34209
HEad  -11.4337 -26.9559 10.9156
LeftShoulder1  1.86266 -3.08621 -21.9291
LeftArm  16.0583 19.6102 -46.8241
LeftForeArm  134.934 -75.363 -136.68
LeftHand  0.249471 7.87769 12.6681
RightShoulder  3.04236 5.14205 29.2675
RightArm  -10.2097 -22.2696 36.5898
RightForeArm  74.8631 79.5249 72.6095
RightHand  -0.290523 -7.72927 11.4738
LeftUpLeg  6.10025 7.66462 9.11809
LeftLeg  18.5229 3.42503 1.33855
LeftFoot  3.30064 1.49486 -11.807
LeftToes  -6.27559e-011 -2.10356e-011 8.24929e-012
529
root  -1.89429 40.9671 27.9394 178.937 -38.7288 179.216
RightUpLeg  -16.2918 -25.0641 -12.0323
RightLeg  23.6495 11.8586 5.42775
RightFoot  8.57887 -2.07958 12.1391
RightToes  -1.74623e-010 0 -2.59999e-017
Spine  -0.0404084 -0.065398 -2.23539
Spine1  13.8802 -0.382506 0.476451
HEad  -12.6564 -24.6198 10.13
LeftShoulder1  1.84025 -3.36716 -20.3488
LeftArm  16.7436 19.9629 -49.1263
LeftForeArm  139.213 -75.6924 -136.533
LeftHand  0.128241 6.77629 12.4378
RightShoulder  2.77739 4.85688 27.2424
RightArm  -7.3364 -22.3422 36.5422
RightForeArm  94.3508 79.4773 100.127
RightHand  -0.510327 -8.21694 17.8785
LeftUpLeg  8.12876 3.58048 7.13228
LeftLeg  15.0077 2.60691 1.06519
LeftFoot  2.49255 1.23849 -10.3138
LeftToes  -6.27559e-011 -2.10356e-011 8.24929e-012
530
root  -1.99228 40.6464 27.8415 179.39 -32.7827 179.897
RightUpLeg  -19.4451 -24.3477 -9.53989
RightLeg  17.369 10.047 3.60637
RightFoot  7.19124 -1.56066 9.85251
RightToes  -1.74623e-010 0 -2.59999e-017
Spine  0.234391 0.492972 0.0247107
Spine1  12.8094 0.746146 -0.928307
HEad  -14.2638 -21.4294 9.89416
LeftShoulder1  1.77484 -3.34534 -19.417
LeftArm  18.6871 17.3024 -48.8067
LeftForeArm  137.794 -75.9888 -135.28
LeftHand  0.127251 6.6809 13.1385
RightShoulder  2.7074 4.8992 26.202
RightArm  -5.34331 -19.895 35.2659
RightForeArm  104.822 78.1874 116.35
RightHand  -0.716465 -9.39957 18.2299
LeftUpLeg  10.0063 2.9426 6.41115
LeftLeg  12.2344 0.324579 0.211965
LeftFoot  -1.80991 1.00116 -11.8708
LeftToes  -6.27559e-011 -2.10356e-011 8.24929e-012
531
root  -1.95959 39.8114 27.7582 -179.716 -26.9366 179.741
RightUpLeg  -22.3199 -18.7278 -9.8278
RightLeg  10.1997 2.99854 3.84324
RightFoot  6.34668 -1.32309 8.76794
RightToes  -1.74623e-010 0 -2.59999e-017
Spine  1.47199 0.625606 -0.527724
Spine1  11.1975 0.862735 -0.58459
HEad  -16.316 -17.1122 9.20913
LeftShoulder1  1.8608 -3.42862 -20.4072
LeftArm  19.9156 12.0909 -45.765
LeftForeArm  132.855 -76.325 -133.068
LeftHand  0.174415 6.91167 14.6516
RightShoulder  2.74926 5.0278 26.2061
RightArm  -4.13948 -14.0333 33.4732
RightForeArm  111.044 77.3606 123.085
RightHand  -0.584263 -9.82172 13.0774
LeftUpLeg  12.1325 4.8827 6.52708
LeftLeg  10.5564 2.2372 -1.05701
LeftFoot  -8.14867 0.425043 -13.5416
LeftToes  -6.27559e-011 -2.10356e-011 8.24929e-012
532
root  -1.8432 38.8023 27.5061 -179.122 -21.4106 178.413
RightUpLeg  -24.5983 -14.6083 -11.3621
RightLeg  4.68409 -8.40186 5.75662
RightFoot  4.86695 -1.3661 9.8217
RightToes  -1.74623e-010 0 -2.59999e-017
Spine  1.80332 0.502322 -3.6633
Spine1  12.3937 0.325255 0.881986
HEad  -19.6523 -12.5081 7.99408
LeftShoulder1  1.99412 -3.48071 -22.2324
LeftArm  20.2022 2.59642 -42.7784
LeftForeArm  118.892 -78.067 -121.521
LeftHand  0.24937 7.19241 16.9756
RightShoulder  2.85592 5.14126 27.0493
RightArm  -4.82654 -6.03072 33.1277
RightForeArm  118.985 77.6085 124.007
RightHand  -0.306158 -9.94943 6.03545
LeftUpLeg  15.0007 4.56592 4.16467
LeftLeg  8.67256 9.66514 -1.2774
LeftFoot  -15.1189 -0.389068 -14.4403
LeftToes  -6.27559e-011 -2.10356e-011 8.24929e-012
533
root  -1.73505 38.0767 26.7428 -178.806 -16.2281 177.112
RightUpLeg  -25.7077 -13.1126 -10.9015
RightLeg  1.35769 -20.3817 7.95399
RightFoot  3.39451 -1.17972 9.28433
RightToes  -1.74623e-010 0 -2.59999e-017
Spine  0.287903 0.105188 -5.58829
Spine1  14.2055 0.0431519 0.51997
HEad  -20.6957 -8.98392 7.12165
LeftShoulder1  2.01185 -3.36533 -23.0124
LeftArm  21.426 -8.3328 -41.7568
LeftForeArm  99.94 -79.5751 -102.205
LeftHand  0.297894 7.41089 17.8497
RightShoulder  3.03249 5.32906 28.3882
RightArm  -6.0486 -2.66232 35.7338
RightForeArm  132.012 78.1546 124.938
RightHand  -0.11906 -10.8031 1.22833
LeftUpLeg  17.8598 3.33795 0.47394
LeftLeg  6.77044 18.2212 0.00539078
LeftFoot  -17.9432 -0.739288 -14.6079
LeftToes  -6.27559e-011 -2.10356e-011 8.24929e-012
